<svg width="193" height="61" viewBox="0 0 193 61" fill="none" xmlns="http://www.w3.org/2000/svg">
<path d="M7.05273 50.9567L10.3789 50.9567L10.3789 47.6382L7.05273 47.6382L7.05273 50.9567Z" fill="#00F1FC"/>
<path d="M79.6748 50.9567L76.3486 50.9567L76.3486 47.6382L79.6748 47.6382L79.6748 50.9567Z" fill="#00F1FC"/>
<path d="M51.1257 48.7443L48.9082 48.7443L48.9082 46.5319L51.1257 46.5319L51.1257 48.7443Z" fill="#00F1FC"/>
<path d="M40.3151 57.3171L38.0977 57.3171L38.0977 55.1048L40.3151 55.1048L40.3151 57.3171Z" fill="#00F1FC"/>
<path d="M38.0983 55.1047L35.8809 55.1047L35.8809 52.8924L38.0983 52.8924L38.0983 55.1047Z" fill="#00F1FC"/>
<path d="M35.8796 57.3171L33.6621 57.3171L33.6621 55.1048L35.8796 55.1048L35.8796 57.3171Z" fill="#00F1FC"/>
<path fill-rule="evenodd" clip-rule="evenodd" d="M10.379 47.6381L13.7052 47.6381L13.7052 50.9567L20.3576 50.9567L20.3576 48.7443L27.01 48.7443L27.01 50.9567L33.6624 50.9567L33.6624 52.8925L35.8798 52.8925L35.8798 50.9567L38.0973 50.9567L38.0973 52.8925L38.0984 52.8925L40.3148 52.8925L40.3148 50.9567L46.69 50.9567L48.9074 50.9567L48.9074 48.7443L46.69 48.7443L46.69 46.532L48.9074 46.532L48.9074 44.5962L51.1249 44.5962L51.1249 46.532L53.3424 46.532L53.3424 48.7443L51.126 48.7443L51.1249 48.7443L51.1249 50.9567L53.3424 50.9567L59.9948 50.9567L59.9948 57.3171L66.6471 57.3171L66.6471 50.9567L73.0224 50.9567L73.0224 47.6381L76.3486 47.6381L76.3486 44.5962L79.6748 44.5962L79.6748 38.2357L86.3271 38.2357L86.3271 29.3863L0.400391 29.3863L0.400391 38.2357L7.05279 38.2357L7.05279 44.5962L10.379 44.5962L10.379 47.6381ZM27.01 47.0851L20.3576 47.0851L20.3576 45.9789L27.01 45.9789L27.01 47.0851Z" fill="#00F1FC"/>
<path d="M9.11816 46.8076L12.0852 46.8076L12.0852 43.8419L9.11816 43.8419L9.11816 46.8076Z" fill="#00F1FC"/>
<path d="M73.8977 46.8076L70.9307 46.8076L70.9307 43.8419L73.8977 43.8419L73.8977 46.8076Z" fill="#00F1FC"/>
<path d="M48.4321 44.8306L46.4541 44.8306L46.4541 42.8534L48.4321 42.8534L48.4321 44.8306Z" fill="#00F1FC"/>
<path d="M38.7885 52.4919L36.8105 52.4919L36.8105 50.5148L38.7885 50.5148L38.7885 52.4919Z" fill="#00F1FC"/>
<path d="M36.812 50.5148L34.834 50.5148L34.834 48.5376L36.812 48.5376L36.812 50.5148Z" fill="#00F1FC"/>
<path d="M34.8325 52.4919L32.8545 52.4919L32.8545 50.5148L34.8325 50.5148L34.8325 52.4919Z" fill="#00F1FC"/>
<path fill-rule="evenodd" clip-rule="evenodd" d="M12.0856 43.8419L15.0526 43.8419L15.0526 46.8077L20.9865 46.8077L20.9865 44.8305L26.9205 44.8305L26.9205 46.8077L32.8545 46.8077L32.8545 48.5377L34.8325 48.5377L34.8325 46.8077L36.8105 46.8077L36.8105 48.5377L36.8115 48.5377L38.7885 48.5377L38.7885 46.8077L44.4753 46.8077L46.4533 46.8077L46.4533 44.8305L44.4753 44.8305L44.4753 42.8534L46.4533 42.8534L46.4533 41.1234L48.4313 41.1234L48.4313 42.8534L50.4093 42.8534L50.4093 44.8305L48.4323 44.8305L48.4313 44.8305L48.4313 46.8077L50.4093 46.8077L56.3433 46.8077L56.3433 52.4919L62.2773 52.4919L62.2773 46.8077L67.964 46.8077L67.964 43.8419L70.931 43.8419L70.931 41.1234L73.898 41.1234L73.898 35.4391L79.832 35.4391L79.832 27.5305L3.18457 27.5305L3.18457 35.4391L9.11856 35.4391L9.11856 41.1234L12.0856 41.1234L12.0856 43.8419ZM26.9205 43.3477L20.9865 43.3477L20.9865 42.3591L26.9205 42.3591L26.9205 43.3477Z" fill="#00F1FC"/>
<path d="M7.05273 9.7804L10.3789 9.7804L10.3789 13.0989L7.05273 13.0989L7.05273 9.7804Z" fill="#00F1FC"/>
<path d="M79.6748 9.7804L76.3486 9.7804L76.3486 13.0989L79.6748 13.0989L79.6748 9.7804Z" fill="#00F1FC"/>
<path d="M51.1257 11.9928L48.9082 11.9928L48.9082 14.2051L51.1257 14.2051L51.1257 11.9928Z" fill="#00F1FC"/>
<path d="M40.3151 3.41992L38.0977 3.41992L38.0977 5.63226L40.3151 5.63226L40.3151 3.41992Z" fill="#00F1FC"/>
<path d="M38.0983 5.63232L35.8809 5.63232L35.8809 7.84467L38.0983 7.84467L38.0983 5.63232Z" fill="#00F1FC"/>
<path d="M35.8796 3.41992L33.6621 3.41992L33.6621 5.63226L35.8796 5.63226L35.8796 3.41992Z" fill="#00F1FC"/>
<path fill-rule="evenodd" clip-rule="evenodd" d="M10.379 13.0989L13.7052 13.0989L13.7052 9.78041L20.3576 9.78041L20.3576 11.9928L27.01 11.9928L27.01 9.78041L33.6624 9.78041L33.6624 7.84461L35.8798 7.84461L35.8798 9.78041L38.0973 9.78041L38.0973 7.84461L38.0984 7.84461L40.3148 7.84461L40.3148 9.78041L46.69 9.78041L48.9074 9.78041L48.9074 11.9928L46.69 11.9928L46.69 14.2051L48.9074 14.2051L48.9074 16.1409L51.1249 16.1409L51.1249 14.2051L53.3424 14.2051L53.3424 11.9928L51.126 11.9928L51.1249 11.9928L51.1249 9.78041L53.3424 9.78041L59.9948 9.78042L59.9948 3.41993L66.6471 3.41993L66.6471 9.78042L73.0224 9.78042L73.0224 13.0989L76.3486 13.0989L76.3486 16.1409L79.6748 16.1409L79.6747 22.5014L86.3271 22.5014L86.3271 31.3508L0.400388 31.3508L0.400389 22.5014L7.05278 22.5014L7.05278 16.1409L10.379 16.1409L10.379 13.0989ZM27.01 13.652L20.3576 13.652L20.3576 14.7582L27.01 14.7582L27.01 13.652Z" fill="#00F1FC"/>
<path d="M9.11816 13.9296L12.0852 13.9296L12.0852 16.8953L9.11816 16.8953L9.11816 13.9296Z" fill="#00F1FC"/>
<path d="M73.8977 13.9296L70.9307 13.9296L70.9307 16.8953L73.8977 16.8953L73.8977 13.9296Z" fill="#00F1FC"/>
<path d="M48.4321 15.9066L46.4541 15.9066L46.4541 17.8838L48.4321 17.8838L48.4321 15.9066Z" fill="#00F1FC"/>
<path d="M38.7885 8.24524L36.8105 8.24524L36.8105 10.2224L38.7885 10.2224L38.7885 8.24524Z" fill="#00F1FC"/>
<path d="M36.812 10.2224L34.834 10.2224L34.834 12.1996L36.812 12.1996L36.812 10.2224Z" fill="#00F1FC"/>
<path d="M34.8325 8.24524L32.8545 8.24524L32.8545 10.2224L34.8325 10.2224L34.8325 8.24524Z" fill="#00F1FC"/>
<path fill-rule="evenodd" clip-rule="evenodd" d="M12.0856 16.8952L15.0526 16.8952L15.0526 13.9295L20.9865 13.9295L20.9865 15.9067L26.9205 15.9067L26.9205 13.9295L32.8545 13.9295L32.8545 12.1995L34.8325 12.1995L34.8325 13.9295L36.8105 13.9295L36.8105 12.1995L36.8115 12.1995L38.7885 12.1995L38.7885 13.9295L44.4753 13.9295L46.4533 13.9295L46.4533 15.9067L44.4753 15.9067L44.4753 17.8838L46.4533 17.8838L46.4533 19.6138L48.4313 19.6138L48.4313 17.8838L50.4093 17.8838L50.4093 15.9067L48.4323 15.9067L48.4313 15.9067L48.4313 13.9295L50.4093 13.9295L56.3433 13.9295L56.3433 8.24524L62.2773 8.24524L62.2773 13.9295L67.964 13.9295L67.964 16.8953L70.931 16.8953L70.931 19.6138L73.898 19.6138L73.898 25.2981L79.832 25.2981L79.832 33.2067L3.18457 33.2067L3.18457 25.2981L9.11856 25.2981L9.11856 19.6138L12.0856 19.6138L12.0856 16.8952ZM26.9205 17.3895L20.9865 17.3895L20.9865 18.3781L26.9205 18.3781L26.9205 17.3895Z" fill="#00F1FC"/>
<path d="M91.1104 1.76924L111.88 30.3166L91.0717 58.8073L110.805 58.8073L110.805 58.7318L114.383 53.9251C117.666 55.8673 121.188 57.4057 124.866 58.5054C130.076 60.0349 135.497 60.7864 140.942 60.734C149.691 60.81 158.381 59.3376 166.581 56.39C174.462 53.5005 180.685 49.7231 185.248 45.0578C189.811 40.393 192.093 35.4664 192.093 30.2789C192.093 25.1796 189.811 20.3096 185.248 15.6698C180.685 11.03 174.462 7.25255 166.581 4.33752C158.38 1.39325 149.69 -0.075817 140.942 0.00296718C135.477 -0.0512859 130.037 0.700224 124.807 2.23157C121.19 3.29823 117.722 4.78853 114.481 6.6704L110.805 1.71264L91.0717 1.71263L91.1104 1.76924ZM120.26 18.0399C125.775 15.0749 132.669 13.5921 140.942 13.5921C149.214 13.5921 156.105 15.0749 161.613 18.0399C167.128 21.0054 169.886 25.0975 169.886 30.3166C169.883 31.9527 169.534 33.5713 168.862 35.0734C168.189 36.575 167.207 37.929 165.974 39.0518C162.98 41.8003 159.359 43.8312 155.404 44.9823C146.014 47.803 135.958 47.803 126.567 44.9823C122.609 43.8449 118.981 41.8267 115.977 39.0895C114.736 37.971 113.745 36.6189 113.063 35.1168C112.383 33.6147 112.026 31.9942 112.017 30.3543C111.997 25.1036 114.745 20.9993 120.26 18.0399Z" fill="white"/>
</svg>
