<svg width="228" height="72" viewBox="0 0 228 72" fill="none" xmlns="http://www.w3.org/2000/svg">
<path d="M65.8398 23.3873C67.765 24.0985 69.2891 25.0281 70.4121 26.1761C71.5351 27.3242 72.0967 28.5226 72.0967 29.7713C72.0967 31.045 71.5351 32.2573 70.4121 33.4084C69.2891 34.5597 67.765 35.4893 65.8398 36.1973C63.827 36.9231 61.693 37.2848 59.5445 37.264C56.6375 37.264 54.2535 36.6442 52.3925 35.4048V42.3977H47.2451V22.7412H52.1014L52.3636 24.2007C54.2038 22.9457 56.5975 22.3183 59.5445 22.3183C61.6931 22.2983 63.8271 22.6607 65.8398 23.3873ZM53.3792 31.9862C54.1066 32.663 54.9962 33.1557 55.9685 33.42C58.3053 34.0739 60.7862 34.0739 63.123 33.42C64.0946 33.1557 64.9834 32.663 65.7099 31.9862C66.0164 31.701 66.2599 31.3587 66.4253 30.9799C66.5908 30.6012 66.6748 30.1941 66.6725 29.783C66.6756 29.3736 66.5918 28.9678 66.4263 28.5909C66.2607 28.214 66.0169 27.8738 65.7099 27.5914C64.9776 26.9226 64.0908 26.4318 63.123 26.1598C61.9645 25.813 60.7572 25.6428 59.5445 25.6556C58.3337 25.6428 57.1279 25.8081 55.9685 26.1459C54.9963 26.4094 54.1068 26.9013 53.3792 27.5775C53.0747 27.8651 52.8329 28.2086 52.6677 28.5877C52.5026 28.9669 52.4175 29.374 52.4175 29.7853C52.4175 30.1966 52.5026 30.6038 52.6677 30.983C52.8329 31.362 53.0747 31.7055 53.3792 31.9931V31.9862Z" fill="white"/>
<path d="M40.4336 16.0697H45.581V36.7813H40.4336V16.0697Z" fill="white"/>
<path d="M72.5752 15.9998H77.7226V23.7109C78.7979 23.2653 79.9192 22.9311 81.0676 22.7138C82.3103 22.4563 83.5772 22.3231 84.8481 22.3164C86.7434 22.3277 88.6258 22.6167 90.4312 23.174C92.1856 23.668 93.8075 24.5253 95.1839 25.6863C96.4546 26.7925 97.0899 28.1033 97.0899 29.6185V36.7532H91.9424V30.3529C91.964 29.4123 91.6159 28.4988 90.9678 27.7964C90.2627 27.0596 89.3712 26.5126 88.3808 26.2091C87.242 25.8436 86.0482 25.663 84.8481 25.6746C82.7321 25.6746 81.0163 26.0496 79.7007 26.7995C78.3852 27.5494 77.7259 28.7005 77.7226 30.253V36.7602H72.5752V15.9998Z" fill="white"/>
<path d="M105.032 36.1121C103.092 35.4008 101.56 34.4713 100.435 33.3232C99.3108 32.1751 98.7494 30.9775 98.751 29.7303C98.751 28.4568 99.3124 27.2443 100.435 26.0932C101.559 24.9421 103.091 24.0124 105.032 23.3043C107.05 22.5794 109.189 22.2178 111.342 22.2376C112.681 22.2231 114.014 22.4064 115.295 22.7814C116.429 23.1128 117.499 23.6198 118.465 24.2827L118.756 22.7118H123.612V36.7535H118.756L118.496 35.1266C117.525 35.7909 116.449 36.298 115.31 36.628C114.024 37.0086 112.686 37.1982 111.342 37.1904C109.188 37.2065 107.049 36.841 105.032 36.1121ZM106.252 32.7422C107.609 33.4719 109.306 33.8368 111.342 33.8368C113.377 33.8368 115.074 33.4719 116.431 32.7422C117.785 32.0093 118.463 30.9984 118.465 29.7094C118.464 29.3067 118.378 28.9084 118.213 28.5388C118.047 28.1693 117.805 27.8361 117.502 27.5596C116.765 26.883 115.873 26.3831 114.898 26.1002C112.588 25.4061 110.114 25.4061 107.804 26.1002C106.829 26.3823 105.937 26.8823 105.2 27.5596C104.897 27.8359 104.655 28.1689 104.489 28.5386C104.324 28.9083 104.238 29.3066 104.238 29.7094C104.223 30.9999 104.895 32.0109 106.252 32.7422Z" fill="white"/>
<path d="M38.7618 36.7792L33.6503 29.7537L38.7713 22.7422H33.915V22.7608L33.0343 23.9437C32.2264 23.4657 31.3597 23.0871 30.4546 22.8165C29.1725 22.4401 27.8384 22.2551 26.4983 22.268C24.3452 22.2493 22.2066 22.6117 20.1886 23.3371C18.249 24.0482 16.7177 24.9778 15.5947 26.1259C14.4717 27.2739 13.9102 28.4864 13.9102 29.763C13.9102 31.0179 14.4717 32.2164 15.5947 33.3583C16.7177 34.5001 18.249 35.4297 20.1886 36.1471C22.2068 36.8717 24.3453 37.2332 26.4983 37.2138C27.8431 37.2272 29.1821 37.0422 30.4691 36.6654C31.3592 36.4029 32.2127 36.0361 33.0103 35.573L33.915 36.7931H38.7713L38.7618 36.7792ZM31.588 32.775C30.2308 33.5047 28.5343 33.8696 26.4983 33.8696C24.4625 33.8696 22.7667 33.5047 21.4111 32.775C20.0539 32.0452 19.3752 31.0381 19.3752 29.7537C19.376 29.3511 19.4618 28.9527 19.6273 28.5831C19.7928 28.2135 20.0345 27.8803 20.3378 27.604C21.0748 26.9276 21.9658 26.4278 22.9392 26.1445C25.2501 25.4503 27.7249 25.4503 30.0359 26.1445C31.0101 26.4244 31.9028 26.9211 32.6421 27.5947C32.9476 27.87 33.1915 28.2027 33.3591 28.5724C33.5267 28.942 33.6143 29.3408 33.6167 29.7444C33.6215 31.0366 32.9453 32.0467 31.588 32.775Z" fill="white"/>
<path d="M158.781 22.9099V16.1865H153.371V23.535C151.422 22.2367 148.917 21.5876 145.855 21.5876C143.597 21.5664 141.354 21.9461 139.237 22.7077C137.211 23.4561 135.607 24.4353 134.425 25.6453C133.242 26.8554 132.652 28.1297 132.653 29.4683C132.653 30.7868 133.244 32.0456 134.425 33.2448C135.606 34.444 137.21 35.4178 139.237 36.1661C141.354 36.9296 143.597 37.3101 145.855 37.2886C148.95 37.2886 151.466 36.6294 153.403 35.3108L153.679 36.8447H158.781V22.9006V22.9099ZM152.333 31.7551C151.57 32.4647 150.635 32.9813 149.614 33.2588C148.395 33.6143 147.129 33.789 145.855 33.777C144.581 33.7879 143.314 33.6068 142.097 33.2402C141.079 32.9569 140.146 32.4421 139.378 31.7389C139.055 31.4421 138.8 31.0849 138.627 30.6892C138.454 30.2936 138.365 29.8677 138.369 29.438C138.365 29.005 138.454 28.5757 138.627 28.1762C138.8 27.7769 139.055 27.4154 139.378 27.114C140.142 26.4032 141.078 25.8858 142.099 25.6081C144.555 24.9202 147.161 24.9202 149.617 25.6081C150.637 25.8864 151.572 26.4036 152.336 27.114C152.654 27.4167 152.907 27.7774 153.079 28.1753C153.252 28.5731 153.34 29 153.34 29.431C153.34 29.8622 153.252 30.2891 153.079 30.6869C152.907 31.0847 152.654 31.4454 152.336 31.7482L152.333 31.7551Z" fill="white"/>
<path d="M178.628 32.5909C176.789 33.7298 174.216 33.9226 173.13 33.9296H173.069H172.736H172.495C171.854 33.8947 171.216 33.8171 170.584 33.6971C170.375 33.6553 170.166 33.6135 169.96 33.56L169.913 33.5484C169.588 33.4625 169.271 33.3602 168.951 33.2463C167.668 32.7815 166.785 32.0695 166.304 31.1105L176.17 31.0966H182.576H185.418C185.518 30.5974 185.567 30.0898 185.565 29.5814C185.565 28.3263 185.004 27.1512 183.88 26.0558C182.757 24.9604 181.233 24.0804 179.308 23.4158C175.232 22.0103 170.776 22.0152 166.703 23.4297C164.778 24.1037 163.254 24.993 162.131 26.0977C161.008 27.2023 160.446 28.3822 160.446 29.6371C160.442 30.3029 160.569 30.9634 160.824 31.5824C161.137 32.3345 161.609 33.0159 162.208 33.5832C163.33 34.6879 164.855 35.5773 166.78 36.2512C168.801 36.9496 170.934 37.3004 173.08 37.2878C175.229 37.2923 177.362 36.9369 179.385 36.2373C181.311 35.5726 182.834 34.6926 183.958 33.5973C184.275 33.2904 184.559 32.9533 184.807 32.5909H178.628ZM172.998 25.6956H173.061C174.413 25.6956 178.09 26 179.761 28.0614H166.299C167.969 26 171.647 25.7049 172.998 25.6956Z" fill="white"/>
<path d="M195.924 30.2676L187.227 23.2468H193.243L199.118 27.7112L204.972 23.2468H210.989L202.294 30.2955L210.989 37.2884H204.996L199.064 32.8403L193.248 37.2792H187.231L195.924 30.2676Z" fill="white"/>
<path d="M4.57129 0.000976562H13.1826V4.13477H4.57129V13.0898H0.0927734V0H4.57129V0.000976562Z" fill="#00F1FC"/>
<path d="M223.429 71.999H214.816V67.8652H223.429V58.9102H227.907V72H223.429V71.999Z" fill="#00F1FC"/>
<path d="M196.868 45.6906H199.137V48.0991C199.137 48.7158 199.352 49.2511 199.782 49.7049C200.225 50.147 200.812 50.4845 201.545 50.7172C202.278 50.9499 203.075 51.0663 203.936 51.0663C205.24 51.0663 206.333 50.8161 207.218 50.3158C208.114 49.8154 208.614 49.0765 208.719 48.0991V45.6906H210.988V53.0734C210.976 54.0741 210.633 54.9351 209.958 55.6565C209.283 56.3896 208.405 56.9481 207.322 57.3321C206.252 57.7161 205.123 57.9081 203.936 57.9081C202.808 57.9081 201.691 57.7103 200.585 57.3146C199.48 56.9307 198.572 56.3547 197.863 55.5867C197.164 54.8304 196.833 53.917 196.868 52.8465H199.137C199.137 53.4632 199.346 53.9926 199.765 54.4348C200.196 54.8886 200.772 55.2318 201.493 55.4646C202.214 55.6973 203 55.8136 203.849 55.8136C205.176 55.8136 206.293 55.5635 207.2 55.0631C208.108 54.5628 208.614 53.8239 208.719 52.8465V51.8866C208.102 52.2706 207.375 52.5789 206.537 52.8116C205.711 53.0327 204.844 53.1432 203.936 53.1432C202.878 53.1432 201.801 52.9629 200.708 52.6022C199.625 52.2298 198.712 51.6597 197.967 50.8917C197.234 50.1121 196.868 49.1464 196.868 47.9944V45.6906Z" fill="#00F1FC"/>
<path d="M175.809 45.6709H177.868L178.043 46.6134C179.078 45.8221 180.283 45.4265 181.656 45.4265C182.575 45.4265 183.447 45.601 184.274 45.9501C185.111 46.2876 185.775 46.7239 186.263 47.2591C186.775 46.6774 187.444 46.2236 188.27 45.8978C189.097 45.572 189.975 45.4091 190.906 45.4091C191.872 45.4091 192.779 45.6185 193.629 46.0374C194.478 46.4563 195.159 47.0148 195.671 47.7129C196.183 48.4111 196.439 49.1616 196.439 49.9644V54.3977H194.205V50.2612C194.146 49.6445 193.949 49.1267 193.611 48.7078C193.274 48.2773 192.849 47.9573 192.337 47.7478C191.837 47.5384 191.302 47.4337 190.731 47.4337C190.161 47.4337 189.62 47.5384 189.108 47.7478C188.596 47.9573 188.183 48.2714 187.869 48.6903C187.566 49.0976 187.415 49.5805 187.415 50.139V54.3977H185.181V50.139C185.111 49.2779 184.727 48.6147 184.029 48.1493C183.331 47.6838 182.511 47.4511 181.568 47.4511C180.963 47.4511 180.387 47.5558 179.84 47.7653C179.305 47.9747 178.869 48.2831 178.531 48.6903C178.206 49.0859 178.043 49.563 178.043 50.1215V54.3977H175.809V45.6709Z" fill="#00F1FC"/>
<path d="M168.619 54.6595C167.351 54.6595 166.175 54.45 165.093 54.0311C164.023 53.6122 163.173 53.0479 162.545 52.3381C161.917 51.6284 161.603 50.8662 161.603 50.0517C161.603 49.2256 161.917 48.4576 162.545 47.7478C163.173 47.0381 164.023 46.4737 165.093 46.0548C166.175 45.6243 167.351 45.4091 168.619 45.4091C169.887 45.4091 171.057 45.6185 172.127 46.0374C173.198 46.4563 174.047 47.0206 174.675 47.7304C175.315 48.4402 175.635 49.2081 175.635 50.0343C175.635 50.3601 175.612 50.6393 175.565 50.872L164.116 50.8895C164.442 51.448 165.047 51.8785 165.931 52.181C166.815 52.4836 167.711 52.6348 168.619 52.6348C169.515 52.6348 170.335 52.565 171.08 52.4254C171.825 52.2858 172.494 52.0472 173.087 51.7098L174.763 52.949C174.204 53.4959 173.355 53.9206 172.214 54.2231C171.074 54.514 169.876 54.6595 168.619 54.6595ZM173.192 49.2139C172.878 48.6438 172.272 48.2074 171.377 47.9049C170.492 47.5908 169.573 47.4337 168.619 47.4337C167.7 47.4337 166.798 47.5908 165.914 47.9049C165.029 48.2074 164.424 48.638 164.098 49.1965L173.192 49.2139Z" fill="#00F1FC"/>
<path d="M154.22 54.6607C152.952 54.6607 151.777 54.4513 150.695 54.0324C149.624 53.6019 148.775 53.0317 148.147 52.3219C147.518 51.6121 147.204 50.85 147.204 50.0355C147.204 49.2094 147.518 48.4414 148.147 47.7316C148.775 47.0102 149.624 46.4401 150.695 46.0212C151.777 45.5907 152.952 45.3754 154.22 45.3754C155.14 45.3754 156.012 45.4859 156.838 45.707C157.665 45.9281 158.398 46.2423 159.038 46.6495V42.1814H161.254V54.3989H159.212L159.073 53.3691C158.421 53.7764 157.676 54.0964 156.838 54.3291C156.012 54.5502 155.14 54.6607 154.22 54.6607ZM149.421 50.0181C149.421 50.4718 149.642 50.8966 150.084 51.2922C150.526 51.6878 151.114 52.0019 151.847 52.2347C152.591 52.4674 153.383 52.5837 154.22 52.5837C155.058 52.5837 155.844 52.4674 156.577 52.2347C157.321 52.0019 157.915 51.6878 158.357 51.2922C158.799 50.8966 159.02 50.4718 159.02 50.0181C159.02 49.5526 158.799 49.1279 158.357 48.7439C157.915 48.3483 157.327 48.0342 156.594 47.8015C155.861 47.5687 155.07 47.4524 154.22 47.4524C153.383 47.4524 152.591 47.5687 151.847 47.8015C151.114 48.0342 150.526 48.3483 150.084 48.7439C149.642 49.1279 149.421 49.5526 149.421 50.0181Z" fill="#00F1FC"/>
<path d="M139.414 54.6598C138.134 54.6598 136.953 54.4504 135.871 54.0315C134.8 53.601 133.951 53.0308 133.322 52.321C132.694 51.6113 132.38 50.8491 132.38 50.0346C132.38 49.2085 132.694 48.4405 133.322 47.7307C133.951 47.0093 134.8 46.4392 135.871 46.0203C136.953 45.5898 138.134 45.3745 139.414 45.3745C140.333 45.3745 141.206 45.4909 142.032 45.7236C142.858 45.9447 143.591 46.2588 144.231 46.6661L144.388 45.6712H146.43V54.398H144.388L144.248 53.3683C143.597 53.7755 142.858 54.0955 142.032 54.3282C141.206 54.5493 140.333 54.6598 139.414 54.6598ZM134.614 50.0172C134.614 50.4942 134.835 50.9306 135.277 51.3262C135.719 51.7102 136.307 52.0185 137.04 52.2512C137.773 52.4723 138.564 52.5828 139.414 52.5828C140.263 52.5828 141.054 52.4723 141.787 52.2512C142.52 52.0185 143.108 51.7102 143.55 51.3262C143.992 50.9306 144.213 50.4942 144.213 50.0172C144.213 49.5866 143.987 49.1736 143.533 48.778C143.091 48.3823 142.497 48.0624 141.752 47.818C141.019 47.5737 140.24 47.4515 139.414 47.4515C138.576 47.4515 137.785 47.5737 137.04 47.818C136.307 48.0624 135.719 48.3823 135.277 48.778C134.835 49.1736 134.614 49.5866 134.614 50.0172Z" fill="#00F1FC"/>
<path d="M124.032 54.6598C122.601 54.6598 121.275 54.4504 120.053 54.0315C118.843 53.601 117.877 53.0308 117.155 52.321C116.446 51.6113 116.091 50.8491 116.091 50.0346C116.091 49.2085 116.446 48.4405 117.155 47.7307C117.877 47.0093 118.843 46.4392 120.053 46.0203C121.275 45.5898 122.601 45.3745 124.032 45.3745C125.289 45.3745 126.47 45.5432 127.575 45.8807C128.681 46.2181 129.606 46.6777 130.35 47.2595C131.095 47.8413 131.572 48.4754 131.782 49.1619H129.46C129.146 48.5918 128.471 48.1671 127.436 47.8878C126.412 47.5969 125.277 47.4515 124.032 47.4515C123.148 47.4515 122.269 47.5562 121.397 47.7657C120.536 47.9751 119.826 48.2776 119.267 48.6732C118.709 49.0572 118.43 49.5052 118.43 50.0172C118.43 50.5291 118.709 50.9829 119.267 51.3785C119.826 51.7625 120.536 52.0592 121.397 52.2687C122.269 52.4781 123.148 52.5828 124.032 52.5828C125.266 52.5828 126.388 52.4432 127.401 52.164C128.425 51.8731 129.111 51.4425 129.46 50.8724H131.799C131.59 51.5589 131.113 52.193 130.368 52.7748C129.623 53.345 128.692 53.8046 127.575 54.1537C126.47 54.4911 125.289 54.6598 124.032 54.6598Z" fill="#00F1FC"/>
<path d="M108.212 54.6598C106.932 54.6598 105.751 54.4504 104.668 54.0315C103.598 53.601 102.749 53.0308 102.12 52.321C101.492 51.6113 101.178 50.8491 101.178 50.0346C101.178 49.2085 101.492 48.4405 102.12 47.7307C102.749 47.0093 103.598 46.4392 104.668 46.0203C105.751 45.5898 106.932 45.3745 108.212 45.3745C109.131 45.3745 110.003 45.4909 110.83 45.7236C111.656 45.9447 112.389 46.2588 113.029 46.6661L113.186 45.6712H115.228V54.398H113.186L113.046 53.3683C112.395 53.7755 111.656 54.0955 110.83 54.3282C110.003 54.5493 109.131 54.6598 108.212 54.6598ZM103.412 50.0172C103.412 50.4942 103.633 50.9306 104.075 51.3262C104.517 51.7102 105.105 52.0185 105.838 52.2512C106.571 52.4723 107.362 52.5828 108.212 52.5828C109.061 52.5828 109.852 52.4723 110.585 52.2512C111.318 52.0185 111.906 51.7102 112.348 51.3262C112.79 50.9306 113.011 50.4942 113.011 50.0172C113.011 49.5866 112.784 49.1736 112.331 48.778C111.888 48.3823 111.295 48.0624 110.55 47.818C109.817 47.5737 109.038 47.4515 108.212 47.4515C107.374 47.4515 106.583 47.5737 105.838 47.818C105.105 48.0624 104.517 48.3823 104.075 48.778C103.633 49.1736 103.412 49.5866 103.412 50.0172Z" fill="#00F1FC"/>
</svg>
