<svg width="482" height="184" viewBox="0 0 482 184" fill="none" xmlns="http://www.w3.org/2000/svg">
<path d="M481.953 175.412V142.501H463.322H444.69V111.566V80.6298H438.48H432.27V72.4022V64.1746H438.48H444.69V55.947V47.7194H438.48H432.27V55.947V64.1746H426.059H419.849V55.947V47.7194H413.638H407.428V55.947V64.1746H413.638H419.849V72.4022V80.6298H413.638H407.428V87.8701V95.1104H388.796H370.165V71.4149V47.7194H351.534H332.902V24.0239V0.328369H314.271H295.64V24.0239V47.7194H277.008H258.377V36.5298V25.3403H248.937H239.497V12.8343V0.328369H211.674H183.852V24.0239V47.7194H166.711H149.57V24.0239V0.328369H124.728H99.8864V8.55597V16.7836H93.6759H87.4655V8.55597V0.328369H81.255H75.0446V8.55597V16.7836H81.255H87.4655V25.0112V33.2388H81.255H75.0446V40.4791V47.7194H56.4132H37.7819V71.4149V95.1104H19.1505H0.519165V101.363V107.616H19.1505H37.7819V111.566V115.515H19.1505H0.519165V121.768V128.021H19.1505H37.7819V135.261V142.501H19.1505H0.519165V175.412V184.006H241.236H481.953V175.412ZM419.849 87.8701V80.6298H426.059H432.27V87.8701V95.1104H426.059H419.849V87.8701ZM221.114 36.5298V25.3403H230.306H239.497V36.5298V47.7194H230.306H221.114V36.5298ZM87.4655 40.4791V33.2388H93.6759H99.8864V25.0112V16.7836H106.097H112.307V25.0112V33.2388H106.097H99.8864V40.4791V47.7194H93.6759H87.4655V40.4791Z" fill="black"/>
</svg>
