<svg width="482" height="158" viewBox="0 0 482 158" fill="none" xmlns="http://www.w3.org/2000/svg">
<path d="M0.519531 132.941L0.519531 108.1H19.1509H37.7822V90.2136V72.3275H47.2221H56.6619V63.8813L56.6619 55.4351L65.8534 55.4351H75.0448V45.9952V36.5554H93.6762H112.308V42.7658V48.9762H130.939H149.57V42.7658V36.5554H168.201L186.833 36.5554V31.0902V25.625H193.043H199.254V19.4145V13.2041H193.043L186.833 13.2041V6.99365V0.783203L193.043 0.783203L199.254 0.783203V6.99365V13.2041H205.464H211.675V6.99365V0.783203L217.885 0.783203L224.095 0.783203V6.99365V13.2041L217.885 13.2041H211.675V19.4145V25.625H217.885H224.095V31.0902V36.5554H248.192H272.289V42.7658V48.9762H278.499H284.709V42.7658V36.5554L309.551 36.5554H334.393V18.6693V0.783203L353.024 0.783203L371.656 0.783203V18.6693V36.5554H389.542L407.428 36.5554V45.9952V55.4351H416.619H425.811V63.8813V72.3275H435.251H444.69V90.2136V108.1H463.322H481.953V132.941V157.783H241.236L0.519531 157.783L0.519531 132.941ZM284.709 66.8623V61.3971L290.92 61.3971H297.13V55.1867V48.9762H290.92L284.709 48.9762V55.1867V61.3971H278.499H272.289V55.1867V48.9762H266.078H259.868V55.1867V61.3971H266.078H272.289V66.8623V72.3275H278.499H284.709V66.8623ZM149.57 61.3971V58.4161H130.939H112.308V61.3971V64.3781H130.939H149.57V61.3971ZM211.675 31.0902V25.625H205.464L199.254 25.625V31.0902V36.5554H205.464H211.675V31.0902Z" fill="black"/>
</svg>
