<svg width="158" height="482" viewBox="0 0 158 482" fill="none" xmlns="http://www.w3.org/2000/svg">
<path d="M132.522 482H107.681V463.369V444.737H89.7946H71.9086V435.297V425.858H63.4624H55.0162V416.666V407.475H45.5763H36.1364V388.843V370.212H42.3469H48.5573V351.581V332.949H42.3469H36.1364V314.318V295.687H30.6712H25.206V289.476V283.266H18.9956H12.7851V289.476V295.687H6.5747H0.364258V289.476V283.266H6.5747H12.7851V277.055V270.845H6.5747H0.364258V264.634V258.424H6.5747H12.7851V264.634V270.845H18.9956H25.206V264.634V258.424H30.6712H36.1364V234.328V210.231H42.3469H48.5573V204.021V197.81H42.3469H36.1364V172.968V148.127H18.2503H0.364258V129.495V110.864H18.2503H36.1364V92.9778V75.0918H45.5763H55.0162V65.9003V56.7089H63.4624H71.9086V47.269V37.8291H89.7946H107.681V19.1978V0.566451H132.522H157.364V241.283V482H132.522ZM66.4434 197.81H60.9782V191.6V185.389H54.7677H48.5573V191.6V197.81H54.7677H60.9782V204.021V210.231H54.7677H48.5573V216.441V222.652H54.7677H60.9782V216.441V210.231H66.4434H71.9086V204.021V197.81H66.4434ZM60.9782 332.949H57.9972V351.581V370.212H60.9782H63.9592V351.581V332.949H60.9782ZM30.6712 270.845H25.206V277.055V283.266H30.6712H36.1364V277.055V270.845H30.6712Z" fill="black"/>
</svg>
