<svg width="179" height="48" viewBox="0 0 179 48" fill="none" xmlns="http://www.w3.org/2000/svg">
<path d="M10.9053 0V3.36816H3.8877V10.667H0.238281V0H10.9053Z" fill="#00F1FC"/>
<path d="M149.17 18.5291H153.148V20.8494C153.148 22.0722 153.693 23.0077 154.783 23.6559C155.873 24.2894 157.206 24.6062 158.783 24.6062C160.33 24.6062 161.619 24.3041 162.65 23.7001C163.681 23.0961 164.263 22.1458 164.396 20.8494V18.5291H168.374V26.8823C168.374 28.385 167.909 29.6593 166.981 30.7053C166.053 31.7513 164.853 32.5322 163.379 33.0478C161.921 33.5782 160.389 33.8433 158.783 33.8433C157.265 33.8433 155.763 33.6003 154.275 33.1141C152.801 32.6279 151.579 31.8987 150.606 30.9263C149.649 29.954 149.17 28.7901 149.17 27.4348H153.148C153.148 28.245 153.442 28.9006 154.032 29.4015C154.621 29.8877 155.343 30.2339 156.197 30.4402C157.066 30.6464 157.928 30.7495 158.783 30.7495C160.109 30.7495 161.339 30.5065 162.473 30.0203C163.622 29.5341 164.263 28.6723 164.396 27.4348V26.5287C163.615 26.8823 162.738 27.1622 161.766 27.3685C160.794 27.5747 159.799 27.6778 158.783 27.6778C157.383 27.6778 155.939 27.4348 154.451 26.9486C152.964 26.4477 151.711 25.689 150.695 24.6724C149.678 23.6412 149.17 22.3742 149.17 20.8715V18.5291Z" fill="white"/>
<path d="M121.41 18.5292H125.101L125.322 19.5458C125.896 19.1038 126.544 18.7723 127.266 18.5513C128.003 18.3156 128.769 18.1978 129.565 18.1978C130.507 18.1978 131.45 18.3598 132.393 18.6839C133.351 18.9933 134.235 19.4574 135.045 20.0761C135.796 19.4574 136.666 18.9933 137.653 18.6839C138.654 18.3745 139.686 18.2199 140.746 18.2199C142.058 18.2199 143.295 18.4482 144.459 18.9049C145.638 19.3616 146.58 20.0246 147.288 20.8938C148.009 21.763 148.37 22.7869 148.37 23.9655V29.5785H144.459V24.3411C144.385 23.5603 144.164 22.8974 143.796 22.3523C143.428 21.8072 142.964 21.402 142.404 21.1369C141.859 20.8569 141.277 20.717 140.658 20.717C140.039 20.717 139.457 20.8569 138.912 21.1369C138.367 21.402 137.925 21.7998 137.586 22.3302C137.247 22.8458 137.078 23.4646 137.078 24.1865V29.5785H133.167V24.1865C133.108 23.4351 132.879 22.8016 132.482 22.286C132.098 21.7556 131.612 21.3652 131.023 21.1148C130.434 20.8496 129.815 20.717 129.167 20.717C128.504 20.717 127.878 20.8496 127.288 21.1148C126.699 21.3799 126.22 21.7777 125.852 22.3081C125.498 22.8237 125.322 23.4425 125.322 24.1644V29.5785H121.41V18.5292Z" fill="white"/>
<path d="M111.39 29.91C109.681 29.91 108.09 29.6227 106.617 29.0481C105.159 28.4588 103.995 27.7001 103.125 26.772C102.271 25.8291 101.844 24.8641 101.844 23.8771C101.844 22.89 102.271 21.9619 103.125 21.0927C103.98 20.2235 105.136 19.5237 106.595 18.9933C108.068 18.4629 109.667 18.1978 111.39 18.1978C113.129 18.1978 114.727 18.4629 116.186 18.9933C117.644 19.5089 118.801 20.2014 119.655 21.0706C120.51 21.925 120.937 22.8458 120.937 23.8329C120.937 24.2601 120.9 24.6579 120.826 25.0262L106.308 25.0483C106.676 25.7997 107.346 26.3595 108.319 26.7278C109.291 27.0961 110.315 27.2803 111.39 27.2803C112.26 27.2803 112.959 27.2582 113.49 27.214C114.035 27.1698 114.609 27.0519 115.213 26.8604C115.817 26.6689 116.451 26.3595 117.114 25.9322L119.611 27.7664C118.933 28.3999 117.799 28.9155 116.208 29.3133C114.617 29.7111 113.011 29.91 111.39 29.91ZM116.407 22.6838C115.979 22.0945 115.294 21.6378 114.352 21.3136C113.409 20.9895 112.422 20.8275 111.39 20.8275C110.226 20.8275 109.173 20.9674 108.23 21.2474C107.302 21.5125 106.661 21.984 106.308 22.6617L116.407 22.6838Z" fill="white"/>
<path d="M91.8434 29.9093C90.1198 29.9093 88.5213 29.6294 87.0481 29.0696C85.5896 28.5098 84.4331 27.7805 83.5786 26.8818C82.7241 25.9832 82.2969 25.0403 82.2969 24.0532C82.2969 23.0514 82.7241 22.1012 83.5786 21.2025C84.4331 20.2891 85.5896 19.5525 87.0481 18.9927C88.5213 18.4328 90.1198 18.1529 91.8434 18.1529C94.0533 18.1529 95.8654 18.6391 97.2797 19.6114V14.1089H101.191V29.5779H97.5007L97.3018 28.4287C95.9022 29.4158 94.0828 29.9093 91.8434 29.9093ZM86.4293 24.0311C86.4293 24.6941 86.6724 25.2687 87.1586 25.7548C87.6447 26.241 88.3003 26.6167 89.1253 26.8818C89.9503 27.147 90.8564 27.2796 91.8434 27.2796C92.8305 27.2796 93.7365 27.1544 94.5616 26.9039C95.3866 26.6388 96.0422 26.2631 96.5283 25.7769C97.0145 25.276 97.2576 24.6941 97.2576 24.0311C97.2576 23.3682 97.0145 22.7936 96.5283 22.3074C96.0422 21.8065 95.3866 21.4309 94.5616 21.1804C93.7365 20.9152 92.8305 20.7826 91.8434 20.7826C90.8564 20.7826 89.9503 20.9152 89.1253 21.1804C88.3003 21.4309 87.6447 21.8065 87.1586 22.3074C86.6724 22.7936 86.4293 23.3682 86.4293 24.0311Z" fill="white"/>
<path d="M71.9944 29.9097C70.2708 29.9097 68.6723 29.6298 67.1991 29.07C65.7258 28.5102 64.562 27.7809 63.7075 26.8822C62.853 25.9836 62.4258 25.0407 62.4258 24.0536C62.4258 23.0518 62.853 22.1016 63.7075 21.2029C64.562 20.2895 65.7258 19.5529 67.1991 18.9931C68.6723 18.4332 70.2708 18.1533 71.9944 18.1533C73.0846 18.1533 74.0864 18.3006 74.9998 18.5953C75.9133 18.8752 76.7162 19.2656 77.4086 19.7665L77.6296 18.529H81.32V29.5783H77.6296L77.4307 28.2965C76.7383 28.7974 75.928 29.1952 74.9998 29.4899C74.0864 29.7698 73.0846 29.9097 71.9944 29.9097ZM66.5803 24.0315C66.5803 25.0481 67.0959 25.8436 68.1272 26.4182C69.1585 26.9927 70.4476 27.28 71.9944 27.28C73.5413 27.28 74.8304 26.9927 75.8617 26.4182C76.893 25.8436 77.4086 25.0481 77.4086 24.0315C77.4086 23.398 77.1581 22.8382 76.6572 22.352C76.1711 21.8511 75.5155 21.4681 74.6905 21.2029C73.8655 20.923 72.9668 20.783 71.9944 20.783C71.0221 20.783 70.1234 20.923 69.2984 21.2029C68.4734 21.4681 67.8105 21.8511 67.3096 22.352C66.8234 22.8382 66.5803 23.398 66.5803 24.0315Z" fill="white"/>
<path d="M51.2244 29.9097C49.3092 29.9097 47.5339 29.6298 45.8986 29.07C44.2633 28.5102 42.9595 27.7809 41.9872 26.8822C41.0296 25.9836 40.5508 25.0407 40.5508 24.0536C40.5508 23.0666 41.0296 22.1163 41.9872 21.2029C42.9595 20.2895 44.2633 19.5529 45.8986 18.9931C47.5339 18.4332 49.3092 18.1533 51.2244 18.1533C52.9039 18.1533 54.5097 18.3817 56.0419 18.8384C57.5888 19.2951 58.8778 19.8917 59.9091 20.6284C60.9551 21.365 61.6033 22.1384 61.8538 22.9487H57.7213C56.4396 21.6523 54.274 21.004 51.2244 21.004C50.2668 21.004 49.2797 21.1219 48.2632 21.3576C47.2614 21.5786 46.4143 21.9174 45.7218 22.3741C45.0442 22.8308 44.7053 23.3833 44.7053 24.0315C44.7053 24.7387 45.0442 25.3206 45.7218 25.7773C46.3995 26.234 47.2319 26.5655 48.219 26.7717C49.2208 26.9633 50.2226 27.059 51.2244 27.059C52.3882 27.059 53.6184 26.9117 54.9148 26.6171C56.226 26.3077 57.1615 25.8068 57.7213 25.1144H61.8759C61.6254 25.9099 60.9772 26.6834 59.9312 27.4347C58.8999 28.1713 57.6109 28.768 56.064 29.2247C54.5171 29.6814 52.9039 29.9097 51.2244 29.9097Z" fill="white"/>
<path d="M40.5375 33.2685L33.789 23.9929L40.55 14.7358H34.1385V14.7603L32.9757 16.3221C31.9089 15.6911 30.7647 15.1912 29.5697 14.8339C27.877 14.337 26.1156 14.0928 24.3464 14.1098C21.5036 14.0851 18.6802 14.5635 16.0158 15.5212C13.455 16.4601 11.4333 17.6874 9.95059 19.2033C8.46791 20.7189 7.72656 22.3197 7.72656 24.0052C7.72656 25.662 8.46791 27.2444 9.95059 28.7519C11.4333 30.2595 13.455 31.4868 16.0158 32.434C18.6804 33.3906 21.5038 33.8679 24.3464 33.8423C26.1219 33.86 27.8897 33.6158 29.5888 33.1182C30.7641 32.7717 31.8909 32.2874 32.9439 31.676L34.1385 33.2868H40.55L40.5375 33.2685ZM31.0662 27.9818C29.2743 28.9452 27.0344 29.427 24.3464 29.427C21.6585 29.427 19.4197 28.9452 17.6299 27.9818C15.8379 27.0183 14.942 25.6887 14.942 23.9929C14.943 23.4613 15.0562 22.9354 15.2747 22.4474C15.4932 21.9595 15.8124 21.5195 16.2128 21.1547C17.1858 20.2617 18.3622 19.6018 19.6474 19.2278C22.6984 18.3113 25.9658 18.3113 29.0169 19.2278C30.3031 19.5974 31.4817 20.2531 32.4579 21.1425C32.8611 21.5059 33.1832 21.9452 33.4045 22.4333C33.6257 22.9213 33.7415 23.4479 33.7445 23.9807C33.751 25.6867 32.8581 27.0203 31.0662 27.9818Z" fill="white"/>
<path d="M168.099 48V44.6318H175.116V37.333H178.766V48H168.099Z" fill="#00F1FC"/>
</svg>
