<svg width="229" height="72" viewBox="0 0 229 72" fill="none" xmlns="http://www.w3.org/2000/svg">
<path d="M66.083 23.3873C68.0082 24.0985 69.5322 25.0281 70.6553 26.1761C71.7783 27.3242 72.3399 28.5226 72.3399 29.7713C72.3399 31.045 71.7783 32.2573 70.6553 33.4084C69.5322 34.5597 68.0082 35.4893 66.083 36.1973C64.0702 36.9231 61.9361 37.2848 59.7877 37.264C56.8807 37.264 54.4967 36.6442 52.6357 35.4048V42.3977H47.4883V22.7412H52.3445L52.6068 24.2007C54.447 22.9457 56.8406 22.3183 59.7877 22.3183C61.9363 22.2983 64.0703 22.6607 66.083 23.3873ZM53.6223 31.9862C54.3498 32.663 55.2394 33.1557 56.2117 33.42C58.5485 34.0739 61.0294 34.0739 63.3661 33.42C64.3378 33.1557 65.2265 32.663 65.9531 31.9862C66.2596 31.701 66.5031 31.3587 66.6685 30.9799C66.8339 30.6012 66.918 30.1941 66.9157 29.783C66.9188 29.3736 66.835 28.9678 66.6694 28.5909C66.5039 28.214 66.2601 27.8738 65.9531 27.5914C65.2207 26.9226 64.334 26.4318 63.3661 26.1598C62.2077 25.813 61.0004 25.6428 59.7877 25.6556C58.5769 25.6428 57.3711 25.8081 56.2117 26.1459C55.2395 26.4094 54.3499 26.9013 53.6223 27.5775C53.3179 27.8651 53.0761 28.2086 52.9109 28.5877C52.7458 28.9669 52.6607 29.374 52.6607 29.7853C52.6607 30.1966 52.7458 30.6038 52.9109 30.983C53.0761 31.362 53.3179 31.7055 53.6223 31.9931V31.9862Z" fill="white"/>
<path d="M40.6777 16.0697H45.8252V36.7813H40.6777V16.0697Z" fill="white"/>
<path d="M72.8203 15.9998H77.9677V23.7109C79.043 23.2653 80.1643 22.9311 81.3127 22.7138C82.5554 22.4563 83.8223 22.3231 85.0933 22.3164C86.9885 22.3277 88.8709 22.6167 90.6763 23.174C92.4307 23.668 94.0526 24.5253 95.429 25.6863C96.6997 26.7925 97.335 28.1033 97.335 29.6185V36.7532H92.1876V30.3529C92.2092 29.4123 91.861 28.4988 91.2129 27.7964C90.5078 27.0596 89.6163 26.5126 88.626 26.2091C87.4871 25.8436 86.2933 25.663 85.0933 25.6746C82.9772 25.6746 81.2614 26.0496 79.9458 26.7995C78.6303 27.5494 77.971 28.7005 77.9677 30.253V36.7602H72.8203V15.9998Z" fill="white"/>
<path d="M105.277 36.1121C103.337 35.4008 101.805 34.4713 100.681 33.3232C99.5559 32.1751 98.9945 30.9775 98.9961 29.7303C98.9961 28.4568 99.5576 27.2443 100.681 26.0932C101.804 24.9421 103.336 24.0124 105.277 23.3043C107.295 22.5794 109.434 22.2178 111.587 22.2376C112.926 22.2231 114.259 22.4064 115.54 22.7814C116.674 23.1128 117.745 23.6198 118.71 24.2827L119.001 22.7118H123.857V36.7535H119.001L118.741 35.1266C117.771 35.7909 116.694 36.298 115.555 36.628C114.269 37.0086 112.931 37.1982 111.587 37.1904C109.433 37.2065 107.294 36.841 105.277 36.1121ZM106.497 32.7422C107.854 33.4719 109.551 33.8368 111.587 33.8368C113.623 33.8368 115.319 33.4719 116.676 32.7422C118.03 32.0093 118.708 30.9984 118.71 29.7094C118.709 29.3067 118.623 28.9084 118.458 28.5388C118.292 28.1693 118.05 27.8361 117.747 27.5596C117.01 26.883 116.118 26.3831 115.143 26.1002C112.833 25.4061 110.359 25.4061 108.049 26.1002C107.075 26.3823 106.182 26.8823 105.445 27.5596C105.142 27.8359 104.9 28.1689 104.734 28.5386C104.569 28.9083 104.483 29.3066 104.483 29.7094C104.468 30.9999 105.14 32.0109 106.497 32.7422Z" fill="white"/>
<path d="M39.0059 36.7792L33.8945 29.7537L39.0154 22.7422H34.1592V22.7608L33.2784 23.9437C32.4705 23.4657 31.6038 23.0871 30.6987 22.8165C29.4166 22.4401 28.0825 22.2551 26.7425 22.268C24.5893 22.2493 22.4508 22.6117 20.4328 23.3371C18.4931 24.0482 16.9618 24.9778 15.8388 26.1259C14.7158 27.2739 14.1543 28.4863 14.1543 29.763C14.1543 31.0179 14.7158 32.2164 15.8388 33.3583C16.9618 34.5001 18.4931 35.4297 20.4328 36.1471C22.4509 36.8717 24.5895 37.2332 26.7425 37.2138C28.0873 37.2272 29.4262 37.0422 30.7132 36.6654C31.6033 36.4029 32.4568 36.0361 33.2544 35.573L34.1592 36.7931H39.0154L39.0059 36.7792ZM31.8322 32.775C30.475 33.5047 28.7784 33.8696 26.7425 33.8696C24.7066 33.8696 23.0109 33.5047 21.6552 32.775C20.298 32.0452 19.6194 31.0381 19.6194 29.7537C19.6201 29.3511 19.7059 28.9527 19.8714 28.5831C20.0369 28.2135 20.2787 27.8803 20.582 27.604C21.3189 26.9276 22.2099 26.4278 23.1833 26.1445C25.4943 25.4503 27.9691 25.4503 30.28 26.1445C31.2542 26.4244 32.1469 26.9211 32.8863 27.5947C33.1917 27.87 33.4356 28.2027 33.6033 28.5724C33.7708 28.942 33.8585 29.3408 33.8608 29.7444C33.8657 31.0366 33.1894 32.0467 31.8322 32.775Z" fill="white"/>
<path d="M159.026 22.9099V16.1865H153.617V23.535C151.667 22.2367 149.162 21.5876 146.1 21.5876C143.842 21.5664 141.599 21.9461 139.482 22.7077C137.457 23.4561 135.852 24.4353 134.67 25.6453C133.487 26.8554 132.897 28.1297 132.898 29.4683C132.898 30.7868 133.489 32.0456 134.67 33.2448C135.851 34.444 137.455 35.4178 139.482 36.1661C141.599 36.9296 143.842 37.3101 146.1 37.2886C149.195 37.2886 151.711 36.6294 153.648 35.3108L153.924 36.8447H159.026V22.9006V22.9099ZM152.579 31.7551C151.815 32.4647 150.88 32.9813 149.86 33.2588C148.64 33.6143 147.374 33.789 146.1 33.777C144.827 33.7879 143.559 33.6068 142.342 33.2402C141.324 32.9569 140.392 32.4421 139.623 31.7389C139.3 31.4421 139.045 31.0849 138.872 30.6892C138.699 30.2936 138.611 29.8677 138.614 29.438C138.611 29.005 138.699 28.5757 138.872 28.1762C139.045 27.7769 139.3 27.4154 139.623 27.114C140.387 26.4032 141.323 25.8858 142.344 25.6081C144.8 24.9202 147.406 24.9202 149.862 25.6081C150.882 25.8864 151.817 26.4036 152.581 27.114C152.899 27.4167 153.152 27.7774 153.324 28.1753C153.497 28.5731 153.585 29 153.585 29.431C153.585 29.8622 153.497 30.2891 153.324 30.6869C153.152 31.0847 152.899 31.4454 152.581 31.7482L152.579 31.7551Z" fill="white"/>
<path d="M178.873 32.5909C177.034 33.7298 174.461 33.9226 173.375 33.9296H173.314H172.981H172.74C172.1 33.8947 171.461 33.8171 170.829 33.6971C170.62 33.6553 170.411 33.6135 170.205 33.56L170.158 33.5484C169.833 33.4625 169.516 33.3602 169.196 33.2463C167.913 32.7815 167.031 32.0695 166.549 31.1105L176.415 31.0966H182.821H185.664C185.763 30.5974 185.812 30.0898 185.81 29.5814C185.81 28.3263 185.249 27.1512 184.125 26.0558C183.003 24.9604 181.478 24.0804 179.553 23.4158C175.477 22.0103 171.021 22.0152 166.948 23.4297C165.023 24.1037 163.499 24.993 162.376 26.0977C161.253 27.2023 160.692 28.3822 160.692 29.6371C160.687 30.3029 160.815 30.9634 161.069 31.5824C161.382 32.3345 161.854 33.0159 162.453 33.5832C163.575 34.6879 165.1 35.5773 167.025 36.2512C169.046 36.9496 171.179 37.3004 173.326 37.2878C175.475 37.2923 177.607 36.9369 179.63 36.2373C181.556 35.5726 183.079 34.6926 184.203 33.5973C184.52 33.2904 184.804 32.9533 185.052 32.5909H178.873ZM173.243 25.6956H173.306C174.658 25.6956 178.335 26 180.006 28.0614H166.544C168.214 26 171.892 25.7049 173.243 25.6956Z" fill="white"/>
<path d="M196.168 30.2676L187.471 23.2468H193.487L199.362 27.7112L205.217 23.2468H211.233L202.538 30.2955L211.233 37.2884H205.24L199.308 32.8403L193.492 37.2792H187.475L196.168 30.2676Z" fill="white"/>
<path d="M4.81641 0.000976562H13.4277V4.13477H4.81641V13.0898H0.337891V0H4.81641V0.000976562Z" fill="#00F1FC"/>
<path d="M223.674 71.999H215.062V67.8652H223.674V58.9102H228.152V72H223.674V71.999Z" fill="#00F1FC"/>
<path d="M197.112 45.6906H199.381V48.0991C199.381 48.7158 199.596 49.2511 200.027 49.7049C200.469 50.147 201.056 50.4845 201.789 50.7172C202.522 50.9499 203.32 51.0663 204.181 51.0663C205.484 51.0663 206.578 50.8161 207.462 50.3158C208.358 49.8154 208.858 49.0765 208.963 48.0991V45.6906H211.232V53.0734C211.22 54.0741 210.877 54.9351 210.202 55.6565C209.527 56.3896 208.649 56.9481 207.567 57.3321C206.496 57.7161 205.367 57.9081 204.181 57.9081C203.052 57.9081 201.935 57.7103 200.829 57.3146C199.724 56.9307 198.816 56.3547 198.107 55.5867C197.409 54.8304 197.077 53.917 197.112 52.8465H199.381C199.381 53.4632 199.59 53.9926 200.009 54.4348C200.44 54.8886 201.016 55.2318 201.737 55.4646C202.458 55.6973 203.244 55.8136 204.093 55.8136C205.42 55.8136 206.537 55.5635 207.444 55.0631C208.352 54.5628 208.858 53.8239 208.963 52.8465V51.8866C208.346 52.2706 207.619 52.5789 206.781 52.8116C205.955 53.0327 205.088 53.1432 204.181 53.1432C203.122 53.1432 202.045 52.9629 200.952 52.6022C199.87 52.2298 198.956 51.6597 198.211 50.8917C197.478 50.1121 197.112 49.1464 197.112 47.9944V45.6906Z" fill="#00F1FC"/>
<path d="M176.053 45.6709H178.112L178.287 46.6134C179.322 45.8221 180.527 45.4265 181.9 45.4265C182.819 45.4265 183.692 45.601 184.518 45.9501C185.355 46.2876 186.019 46.7239 186.507 47.2591C187.019 46.6774 187.688 46.2236 188.515 45.8978C189.341 45.572 190.219 45.4091 191.15 45.4091C192.116 45.4091 193.023 45.6185 193.873 46.0374C194.722 46.4563 195.403 47.0148 195.915 47.7129C196.427 48.4111 196.683 49.1616 196.683 49.9644V54.3977H194.449V50.2612C194.391 49.6445 194.193 49.1267 193.855 48.7078C193.518 48.2773 193.093 47.9573 192.581 47.7478C192.081 47.5384 191.546 47.4337 190.976 47.4337C190.405 47.4337 189.864 47.5384 189.352 47.7478C188.84 47.9573 188.427 48.2714 188.113 48.6903C187.811 49.0976 187.659 49.5805 187.659 50.139V54.3977H185.425V50.139C185.355 49.2779 184.972 48.6147 184.273 48.1493C183.575 47.6838 182.755 47.4511 181.812 47.4511C181.207 47.4511 180.631 47.5558 180.085 47.7653C179.549 47.9747 179.113 48.2831 178.775 48.6903C178.45 49.0859 178.287 49.563 178.287 50.1215V54.3977H176.053V45.6709Z" fill="#00F1FC"/>
<path d="M168.864 54.6595C167.596 54.6595 166.42 54.45 165.338 54.0311C164.268 53.6122 163.418 53.0479 162.79 52.3381C162.162 51.6284 161.848 50.8662 161.848 50.0517C161.848 49.2256 162.162 48.4576 162.79 47.7478C163.418 47.0381 164.268 46.4737 165.338 46.0548C166.42 45.6243 167.596 45.4091 168.864 45.4091C170.132 45.4091 171.302 45.6185 172.372 46.0374C173.443 46.4563 174.292 47.0206 174.92 47.7304C175.56 48.4402 175.88 49.2081 175.88 50.0343C175.88 50.3601 175.857 50.6393 175.811 50.872L164.361 50.8895C164.687 51.448 165.292 51.8785 166.176 52.181C167.06 52.4836 167.956 52.6348 168.864 52.6348C169.76 52.6348 170.58 52.565 171.325 52.4254C172.07 52.2858 172.739 52.0472 173.332 51.7098L175.008 52.949C174.449 53.4959 173.6 53.9206 172.459 54.2231C171.319 54.514 170.121 54.6595 168.864 54.6595ZM173.437 49.2139C173.123 48.6438 172.518 48.2074 171.622 47.9049C170.737 47.5908 169.818 47.4337 168.864 47.4337C167.945 47.4337 167.043 47.5908 166.159 47.9049C165.274 48.2074 164.669 48.638 164.344 49.1965L173.437 49.2139Z" fill="#00F1FC"/>
<path d="M154.466 54.6607C153.197 54.6607 152.022 54.4513 150.94 54.0324C149.869 53.6019 149.02 53.0317 148.392 52.3219C147.763 51.6121 147.449 50.85 147.449 50.0355C147.449 49.2094 147.763 48.4414 148.392 47.7316C149.02 47.0102 149.869 46.4401 150.94 46.0212C152.022 45.5907 153.197 45.3754 154.466 45.3754C155.385 45.3754 156.257 45.4859 157.084 45.707C157.91 45.9281 158.643 46.2423 159.283 46.6495V42.1814H161.499V54.3989H159.457L159.318 53.3691C158.666 53.7764 157.921 54.0964 157.084 54.3291C156.257 54.5502 155.385 54.6607 154.466 54.6607ZM149.666 50.0181C149.666 50.4718 149.887 50.8966 150.329 51.2922C150.771 51.6878 151.359 52.0019 152.092 52.2347C152.837 52.4674 153.628 52.5837 154.466 52.5837C155.303 52.5837 156.089 52.4674 156.822 52.2347C157.566 52.0019 158.16 51.6878 158.602 51.2922C159.044 50.8966 159.265 50.4718 159.265 50.0181C159.265 49.5526 159.044 49.1279 158.602 48.7439C158.16 48.3483 157.572 48.0342 156.839 47.8015C156.106 47.5687 155.315 47.4524 154.466 47.4524C153.628 47.4524 152.837 47.5687 152.092 47.8015C151.359 48.0342 150.771 48.3483 150.329 48.7439C149.887 49.1279 149.666 49.5526 149.666 50.0181Z" fill="#00F1FC"/>
<path d="M139.659 54.6598C138.379 54.6598 137.198 54.4504 136.116 54.0315C135.045 53.601 134.196 53.0308 133.567 52.321C132.939 51.6113 132.625 50.8491 132.625 50.0346C132.625 49.2085 132.939 48.4405 133.567 47.7307C134.196 47.0093 135.045 46.4392 136.116 46.0203C137.198 45.5898 138.379 45.3745 139.659 45.3745C140.578 45.3745 141.451 45.4909 142.277 45.7236C143.103 45.9447 143.836 46.2588 144.476 46.6661L144.633 45.6712H146.675V54.398H144.633L144.493 53.3683C143.842 53.7755 143.103 54.0955 142.277 54.3282C141.451 54.5493 140.578 54.6598 139.659 54.6598ZM134.859 50.0172C134.859 50.4942 135.08 50.9306 135.522 51.3262C135.964 51.7102 136.552 52.0185 137.285 52.2512C138.018 52.4723 138.809 52.5828 139.659 52.5828C140.508 52.5828 141.299 52.4723 142.032 52.2512C142.766 52.0185 143.353 51.7102 143.795 51.3262C144.237 50.9306 144.459 50.4942 144.459 50.0172C144.459 49.5866 144.232 49.1736 143.778 48.778C143.336 48.3823 142.742 48.0624 141.998 47.818C141.265 47.5737 140.485 47.4515 139.659 47.4515C138.821 47.4515 138.03 47.5737 137.285 47.818C136.552 48.0624 135.964 48.3823 135.522 48.778C135.08 49.1736 134.859 49.5866 134.859 50.0172Z" fill="#00F1FC"/>
<path d="M124.275 54.6598C122.844 54.6598 121.518 54.4504 120.296 54.0315C119.086 53.601 118.12 53.0308 117.399 52.321C116.689 51.6113 116.334 50.8491 116.334 50.0346C116.334 49.2085 116.689 48.4405 117.399 47.7307C118.12 47.0093 119.086 46.4392 120.296 46.0203C121.518 45.5898 122.844 45.3745 124.275 45.3745C125.532 45.3745 126.713 45.5432 127.818 45.8807C128.924 46.2181 129.849 46.6777 130.594 47.2595C131.338 47.8413 131.815 48.4754 132.025 49.1619H129.703C129.389 48.5918 128.714 48.1671 127.679 47.8878C126.655 47.5969 125.52 47.4515 124.275 47.4515C123.391 47.4515 122.513 47.5562 121.64 47.7657C120.779 47.9751 120.069 48.2776 119.511 48.6732C118.952 49.0572 118.673 49.5052 118.673 50.0172C118.673 50.5291 118.952 50.9829 119.511 51.3785C120.069 51.7625 120.779 52.0592 121.64 52.2687C122.513 52.4781 123.391 52.5828 124.275 52.5828C125.509 52.5828 126.632 52.4432 127.644 52.164C128.668 51.8731 129.354 51.4425 129.703 50.8724H132.042C131.833 51.5589 131.356 52.193 130.611 52.7748C129.866 53.345 128.935 53.8046 127.818 54.1537C126.713 54.4911 125.532 54.6598 124.275 54.6598Z" fill="#00F1FC"/>
<path d="M108.456 54.6598C107.176 54.6598 105.995 54.4504 104.913 54.0315C103.842 53.601 102.993 53.0308 102.364 52.321C101.736 51.6113 101.422 50.8491 101.422 50.0346C101.422 49.2085 101.736 48.4405 102.364 47.7307C102.993 47.0093 103.842 46.4392 104.913 46.0203C105.995 45.5898 107.176 45.3745 108.456 45.3745C109.375 45.3745 110.248 45.4909 111.074 45.7236C111.9 45.9447 112.633 46.2588 113.273 46.6661L113.43 45.6712H115.472V54.398H113.43L113.29 53.3683C112.639 53.7755 111.9 54.0955 111.074 54.3282C110.248 54.5493 109.375 54.6598 108.456 54.6598ZM103.656 50.0172C103.656 50.4942 103.877 50.9306 104.319 51.3262C104.761 51.7102 105.349 52.0185 106.082 52.2512C106.815 52.4723 107.606 52.5828 108.456 52.5828C109.305 52.5828 110.096 52.4723 110.829 52.2512C111.562 52.0185 112.15 51.7102 112.592 51.3262C113.034 50.9306 113.255 50.4942 113.255 50.0172C113.255 49.5866 113.029 49.1736 112.575 48.778C112.133 48.3823 111.539 48.0624 110.794 47.818C110.061 47.5737 109.282 47.4515 108.456 47.4515C107.618 47.4515 106.827 47.5737 106.082 47.818C105.349 48.0624 104.761 48.3823 104.319 48.778C103.877 49.1736 103.656 49.5866 103.656 50.0172Z" fill="#00F1FC"/>
</svg>
