<svg width="184" height="60" viewBox="0 0 184 60" fill="none" xmlns="http://www.w3.org/2000/svg">
<path d="M6.07723 19.1545H0V0H17.7321V6.56577H6.07723V19.1545Z" fill="#00F0FC"/>
<path d="M177.911 40.2775H183.988V59.435H166.256V52.8693H177.911V40.2775Z" fill="#00F0FC"/>
<path d="M146.868 20.5631H165.269V24.4143H151.131V28.0054H162.861V31.3361H151.131V34.9272H165.269V38.7784H146.868V20.5631Z" fill="white"/>
<path d="M123.502 20.5631H130.149L139.711 35.2654V20.5631H143.975V38.7784H137.303L127.765 24.1281V38.7784H123.502V20.5631Z" fill="white"/>
<path d="M107.359 39.1684C104.854 39.1684 102.534 38.7261 100.399 37.8413C98.263 36.9566 96.569 35.7856 95.3166 34.3284C94.0802 32.8713 93.462 31.3273 93.462 29.6966C93.462 28.066 94.0802 26.522 95.3166 25.0648C96.569 23.5903 98.263 22.4106 100.399 21.5259C102.534 20.6412 104.854 20.1988 107.359 20.1988C109.864 20.1988 112.184 20.6412 114.32 21.5259C116.455 22.4106 118.141 23.5903 119.378 25.0648C120.63 26.522 121.256 28.066 121.256 29.6966C121.256 31.3273 120.63 32.8713 119.378 34.3284C118.141 35.7856 116.455 36.9566 114.32 37.8413C112.184 38.7261 109.864 39.1684 107.359 39.1684ZM97.966 29.6966C97.966 30.7375 98.3834 31.6916 99.2184 32.559C100.069 33.409 101.209 34.0856 102.638 34.5887C104.084 35.0744 105.657 35.3173 107.359 35.3173C109.061 35.3173 110.627 35.0744 112.056 34.5887C113.501 34.0856 114.641 33.409 115.476 32.559C116.327 31.6916 116.752 30.7375 116.752 29.6966C116.752 28.6211 116.327 27.6583 115.476 26.8083C114.641 25.9409 113.501 25.2643 112.056 24.7786C110.627 24.2929 109.061 24.05 107.359 24.05C105.657 24.05 104.084 24.2929 102.638 24.7786C101.209 25.2643 100.069 25.9409 99.2184 26.8083C98.3834 27.6583 97.966 28.6211 97.966 29.6966Z" fill="white"/>
<path d="M65.2309 20.5631H83.6323V24.4143H69.494V28.0054H81.2237V31.3361H69.494V34.9272H83.6323V38.7784H65.2309V20.5631Z" fill="white"/>
<path d="M41.2677 20.5631H45.5309V28.0054H57.4533V20.5631H61.7164V38.7784H57.4533V31.3361H45.5309V38.7784H41.2677V20.5631Z" fill="white"/>
<path d="M26.9535 24.4143H18.7162V20.5631H39.4298V24.4143H31.2166V38.7783H26.9535V24.4143Z" fill="white"/>
</svg>
