<svg width="143" height="169" viewBox="0 0 143 169" fill="none" xmlns="http://www.w3.org/2000/svg">
<path d="M19.2827 114.607C18.6375 121.583 12.6657 137.174 15.1689 143.49C17.8194 141.864 20.218 136.299 21.9986 133.698C24.8214 129.575 27.7423 125.521 30.6382 121.448C35.7409 114.272 40.9412 107.168 46.474 100.312C55.0177 89.726 64.3172 79.6838 73.1308 69.4307C83.0587 57.8809 93.6731 46.978 103.88 35.7051C110.018 28.9268 116.035 22.0363 122.175 15.2582C125.601 11.4758 133.487 -0.213313 139.416 0.00296169C145.49 0.224241 142.501 4.62372 140.192 7.69378C135.431 14.0236 130.257 20.0176 125.292 26.189C114.917 39.083 104.501 51.961 94.3181 65.0063C84.288 77.8563 74.0981 90.7787 63.6683 103.274C53.6244 115.306 40.635 129.132 33.9318 143.359C37.0992 143.997 43.6112 139.789 46.8686 138.551C51.9626 136.614 57.1633 134.626 62.3869 133.052C66.0873 131.937 72.0898 130.192 74.603 134.605C76.3866 137.737 73.7486 142.189 71.2718 144.127C64.5247 149.407 51.9633 151.105 43.9948 154.414C34.5229 158.348 25.091 162.428 15.8409 166.71C10.0765 169.377 2.08972 171.302 0.292565 163.039C-1.15308 156.393 3.15249 144.84 4.62145 138.364C6.6304 129.509 9.50033 120.999 11.8146 112.221C14.7527 101.077 18.1219 105.961 19.2827 114.607C19.1611 115.921 18.9234 111.931 19.2827 114.607Z" fill="url(#paint0_linear_21_18329)"/>
<defs>
<linearGradient id="paint0_linear_21_18329" x1="71.5" y1="0" x2="71.5" y2="169" gradientUnits="userSpaceOnUse">
<stop stop-color="#00F0FC" stop-opacity="0"/>
<stop offset="1" stop-color="#00F0FC"/>
</linearGradient>
</defs>
</svg>
