<svg width="17" height="13" viewBox="0 0 17 13" fill="none" xmlns="http://www.w3.org/2000/svg">
<path d="M15.0928 0.167603C15.6451 0.167603 16.0928 0.615318 16.0928 1.1676C16.0928 1.71989 15.6451 2.1676 15.0928 2.1676H1.09277C0.540489 2.1676 0.0927734 1.71989 0.0927734 1.1676C0.0927734 0.615318 0.540489 0.167603 1.09277 0.167603H15.0928Z" fill="white"/>
<path d="M15.0928 5.1676C15.6451 5.1676 16.0928 5.61532 16.0928 6.1676C16.0928 6.71989 15.6451 7.1676 15.0928 7.1676H1.09277C0.540489 7.1676 0.0927734 6.71989 0.0927734 6.1676C0.0927734 5.61532 0.540489 5.1676 1.09277 5.1676H15.0928Z" fill="white"/>
<path d="M7.51367 10.1676L7.61621 10.1725C8.12041 10.2237 8.51367 10.6499 8.51367 11.1676C8.51367 11.6853 8.12041 12.1115 7.61621 12.1627L7.51367 12.1676H1.09277C0.540489 12.1676 0.0927734 11.7199 0.0927734 11.1676C0.0927734 10.6153 0.540489 10.1676 1.09277 10.1676H7.51367Z" fill="white"/>
</svg>
