<svg width="13" height="13" viewBox="0 0 13 13" fill="none" xmlns="http://www.w3.org/2000/svg">
<path d="M0.562443 0.937081C0.876264 0.623257 1.37256 0.603889 1.70924 0.878485L1.77453 0.937081L12.0605 11.2231L12.12 11.2884C12.3943 11.6251 12.3743 12.1215 12.0605 12.4352C11.7467 12.749 11.2504 12.7685 10.9137 12.4938L10.8484 12.4352L0.562443 2.14917L0.503847 2.08388C0.229256 1.74721 0.248626 1.25091 0.562443 0.937081Z" fill="white"/>
<path d="M12.0616 0.937081C11.7478 0.623257 11.2515 0.603889 10.9148 0.878485L10.8495 0.937081L0.563493 11.2231L0.50406 11.2884C0.229729 11.6251 0.24977 12.1215 0.563493 12.4352C0.87736 12.749 1.37365 12.7685 1.71029 12.4938L1.77558 12.4352L12.0616 2.14917L12.1202 2.08388C12.3948 1.74721 12.3754 1.25091 12.0616 0.937081Z" fill="white"/>
</svg>
