<svg width="124" height="101" viewBox="0 0 124 101" fill="none" xmlns="http://www.w3.org/2000/svg">
<path d="M100.193 41.1046C106.046 48.4501 111.171 58.3608 108.883 66.3281C107.882 69.8149 105.339 72.7038 103.304 75.4066C101.806 77.396 99.4435 82.7056 97.0155 83.1295C96.924 79.732 87.697 56.7569 83.5464 61.4919C81.6212 63.688 86.2647 73.5802 87.1367 76.5897C87.9207 79.2958 88.9719 82.1004 89.3027 84.7926C89.6042 87.2467 88.7147 89.1129 90.5704 91.5891C93.5798 95.6044 99.488 95.0747 103.155 96.0556C108.14 97.3889 114.096 100.388 118.928 100.296C123.152 100.215 124.964 96.1054 120.454 92.4867C116.902 89.6372 111.418 88.7008 107.553 87.7046C112.285 82.7217 117.898 77.022 119.242 69.3048C120.552 61.7861 118.002 53.7971 114.24 45.9794C105.207 27.2104 87.289 16.2548 70.0473 14.5128C66.7838 14.1831 62.8798 15.4146 59.6699 13.6227C57.8746 12.6205 56.0512 10.3534 54.2282 9.14045C52.2563 7.82838 50.1282 6.71059 48.0666 5.71301C39.5825 1.60808 30.4699 0.35974 22.3824 0.867669C16.3414 1.24709 9.83202 3.37414 5.41068 6.73929C3.0154 8.56249 0.584459 11.9319 0.751227 15.5695C0.789795 16.4111 1.05401 19.259 2.04092 19.9615C3.86443 21.2597 3.01902 18.7937 3.21493 17.8853C5.13614 8.97144 15.148 6.90747 23.4633 6.59535C28.4238 6.40917 33.6748 7.18821 38.8661 8.65703C42.1451 9.58489 50.5144 11.9513 52.5871 15.3642C45.1452 15.3277 37.0768 21.4215 34.9528 28.3245C31.333 40.089 44.4552 48.2295 53.7849 45.9586C58.9104 44.711 64.069 41.1961 66.0948 36.1316C66.9591 33.9705 67.3708 31.3382 67.3 28.7577C67.2119 25.5415 66.0253 24.6615 69.4283 24.7643C80.1511 25.0882 92.1624 31.0253 100.193 41.1046ZM55.7973 35.9252C52.7007 36.3206 47.2077 41.2732 43.2197 37.1554C39.4648 33.2784 45.9248 28.6124 47.9682 27.5326C49.799 26.5652 57.2789 22.8915 59.56 25.0858C62.233 27.6571 56.7436 34.6557 55.7973 35.9252C54.263 36.1212 57.9582 33.0266 55.7973 35.9252Z" fill="url(#paint0_linear_270_895)"/>
<defs>
<linearGradient id="paint0_linear_270_895" x1="25.4142" y1="-9.20231" x2="115.771" y2="104.203" gradientUnits="userSpaceOnUse">
<stop stop-color="#00F0FC" stop-opacity="0"/>
<stop offset="1" stop-color="#00F0FC"/>
</linearGradient>
</defs>
</svg>
