<svg width="375" height="1356" viewBox="0 0 375 1356" fill="none" xmlns="http://www.w3.org/2000/svg">
<path d="M197.972 464.297C221.996 498.623 242.689 553.552 256.72 614.657C270.751 675.762 278.111 743.012 275.468 801.913C272.824 860.815 260.678 900.194 243.184 916.255C225.69 932.316 202.857 925.055 178.834 890.731C154.81 856.405 134.117 801.475 120.086 740.37C106.055 679.266 98.694 612.014 101.338 553.113C103.981 494.212 116.128 454.833 133.622 438.772C151.116 422.711 173.949 429.972 197.972 464.297Z" stroke="url(#paint0_linear_381_7965)" stroke-width="0.49736"/>
<path d="M202.311 367.609C237.242 417.519 267.325 497.38 287.718 586.195C308.112 675.009 318.809 772.749 314.967 858.35C311.125 943.949 293.473 1001.18 268.045 1024.53C242.618 1047.87 209.425 1037.32 174.494 987.412C139.563 937.502 109.48 857.642 89.0865 768.827C68.693 680.013 57.9963 582.274 61.8381 496.674C65.6799 411.074 83.332 353.84 108.759 330.495C134.187 307.151 167.38 317.7 202.311 367.609Z" stroke="url(#paint1_linear_381_7965)" stroke-width="0.49736"/>
<path d="M16.7666 382.47C15.3934 396.866 14.3418 411.981 13.6319 427.798C3.02796 664.064 72.6791 967.397 169.202 1105.31C265.725 1243.22 352.569 1163.49 363.173 927.228C373.777 690.962 304.125 387.629 207.602 249.715C139.1 151.838 75.4733 163.582 40.5139 263.104" stroke="url(#paint2_linear_381_7965)" stroke-width="0.49736"/>
<defs>
<linearGradient id="paint0_linear_381_7965" x1="107.303" y1="536.025" x2="283.304" y2="548.966" gradientUnits="userSpaceOnUse">
<stop stop-color="#484848"/>
<stop offset="0.491388" stop-color="#484848" stop-opacity="0.36"/>
<stop offset="1" stop-color="#484848"/>
</linearGradient>
<linearGradient id="paint1_linear_381_7965" x1="70.5704" y1="471.939" x2="326.288" y2="490.741" gradientUnits="userSpaceOnUse">
<stop stop-color="#484848"/>
<stop offset="0.491388" stop-color="#484848" stop-opacity="0.36"/>
<stop offset="1" stop-color="#484848"/>
</linearGradient>
<linearGradient id="paint2_linear_381_7965" x1="25.8735" y1="393.962" x2="378.591" y2="419.896" gradientUnits="userSpaceOnUse">
<stop stop-color="#484848"/>
<stop offset="0.491388" stop-color="#484848" stop-opacity="0.36"/>
<stop offset="1" stop-color="#484848"/>
</linearGradient>
</defs>
</svg>
