<svg width="718" height="2725" viewBox="0 0 718 2725" fill="none" xmlns="http://www.w3.org/2000/svg">
<path d="M378.241 933.522C426.543 1002.54 468.149 1112.98 496.36 1235.84C524.571 1358.7 539.371 1493.91 534.055 1612.34C528.74 1730.77 504.318 1809.94 469.144 1842.24C433.97 1874.53 388.062 1859.93 339.76 1790.92C291.458 1721.9 249.852 1611.46 221.641 1488.6C193.43 1365.74 178.631 1230.53 183.946 1112.1C189.261 993.67 213.683 914.495 248.857 882.202C284.031 849.909 329.939 864.507 378.241 933.522Z" stroke="url(#paint0_linear_381_6565)"/>
<path d="M386.966 739.121C457.198 839.471 517.682 1000.04 558.686 1178.61C599.689 1357.18 621.197 1553.7 613.473 1725.81C605.748 1897.92 570.256 2012.99 519.131 2059.93C468.006 2106.87 401.268 2085.66 331.035 1985.31C260.803 1884.96 200.319 1724.39 159.315 1545.82C118.311 1367.24 96.8031 1170.73 104.528 998.619C112.252 826.511 147.745 711.438 198.869 664.501C249.994 617.564 316.733 638.771 386.966 739.121Z" stroke="url(#paint1_linear_381_6565)"/>
<path d="M397.582 502.58C494.501 641.059 577.955 862.624 634.526 1108.99C691.096 1355.35 720.766 1626.46 710.11 1863.89C699.454 2101.32 650.491 2260.07 579.957 2324.83C509.423 2389.58 417.337 2360.33 320.419 2221.86C223.501 2083.38 140.046 1861.81 83.476 1615.45C26.9059 1369.08 -2.76448 1097.98 7.8916 860.547C18.5477 623.118 67.5109 464.364 138.044 399.608C208.578 334.851 300.664 364.102 397.582 502.58Z" stroke="url(#paint2_linear_381_6565)"/>
<defs>
<linearGradient id="paint0_linear_381_6565" x1="195.941" y1="1077.74" x2="549.811" y2="1103.76" gradientUnits="userSpaceOnUse">
<stop stop-color="#484848"/>
<stop offset="0.491388" stop-color="#484848" stop-opacity="0.36"/>
<stop offset="1" stop-color="#484848"/>
</linearGradient>
<linearGradient id="paint1_linear_381_6565" x1="122.085" y1="948.887" x2="636.235" y2="986.691" gradientUnits="userSpaceOnUse">
<stop stop-color="#484848"/>
<stop offset="0.491388" stop-color="#484848" stop-opacity="0.36"/>
<stop offset="1" stop-color="#484848"/>
</linearGradient>
<linearGradient id="paint2_linear_381_6565" x1="32.2181" y1="792.105" x2="741.398" y2="844.249" gradientUnits="userSpaceOnUse">
<stop stop-color="#484848"/>
<stop offset="0.491388" stop-color="#484848" stop-opacity="0.36"/>
<stop offset="1" stop-color="#484848"/>
</linearGradient>
</defs>
</svg>
