<svg width="1857" height="1100" viewBox="0 0 1857 1100" fill="none" xmlns="http://www.w3.org/2000/svg">
<path d="M87.0928 399H173.093V173.734H216.368V298.823H282.387V357.893H346.669V423.911H476.97V380.478H607.27V423.911H737.57V462.133H781.004V505.566H737.57V549H781.004V505.566H824.438V549H867.871V505.566H824.438V462.133H781.004V423.911H824.438V462.133H867.871V423.911H1036.39V380.478H1079.83V423.911H1253.56V549H1383.86V423.911H1508.95V357.893H1573.23V298.823H1639.25V173.734H1682.09V399H1769.09V173.734H1769.1V1100H1856.09V80C1856.09 35.8173 1820.28 0 1776.09 0H80.0928C35.91 0 0.0927752 35.8173 0.0927734 80V1100H87.0928V399ZM992.96 337.044H1036.39V298.823H1079.83V337.044H1123.26V380.478H1079.83V337.044H1036.39V380.478H992.96V337.044ZM476.97 326.62H607.27V347.469H476.97V326.62ZM282.383 359.632H216.364V423.914H282.383V359.632ZM1639.25 359.633H1573.23V423.914H1639.25V359.633Z" fill="url(#paint0_linear_270_45)"/>
<defs>
<linearGradient id="paint0_linear_270_45" x1="928.093" y1="-5.23951e-05" x2="928.093" y2="550" gradientUnits="userSpaceOnUse">
<stop stop-color="#00F0FC"/>
<stop offset="1" stop-color="#00F0FC" stop-opacity="0"/>
</linearGradient>
</defs>
</svg>
