<svg width="58" height="41" viewBox="0 0 58 41" fill="none" xmlns="http://www.w3.org/2000/svg">
<path d="M45.5 1.5H45.502C48.0716 1.49696 50.2932 1.58554 51.9727 2.59766L52.3018 2.8125V2.81348C54.4852 4.35981 55.2271 7.4449 55.585 10.8984V10.8994C56.181 16.69 56.224 22.5355 55.7158 28.3359L55.6074 29.4951V29.4961C55.3632 31.9423 54.9761 34.0966 53.8086 35.6465L53.5654 35.9482L53.5645 35.9492C52.329 37.374 50.4592 38.0681 48.1748 38.3711L47.7129 38.4258H47.7119C46.7723 38.5278 45.8046 38.5678 44.833 38.5801L43.8613 38.585H43.8584L13.1768 38.5596C9.96221 38.5564 7.10695 38.4116 5.10938 36.9014L4.91797 36.751C2.67496 34.9001 2.07939 31.5518 1.8457 27.8701H1.84668C1.57676 23.5719 1.52093 19.2623 1.68457 14.96L1.76855 13.1172V13.1152C1.91062 10.3808 2.15418 7.85925 3.1875 5.68848C3.87321 4.2529 4.95724 3.01742 6.26074 2.32324L6.52441 2.19238C7.81174 1.5921 9.12457 1.51854 10.7275 1.51953L12.4375 1.52832H12.4395C15.1405 1.52517 17.8417 1.52287 20.543 1.52051C23.2442 1.51814 25.9459 1.51585 28.6475 1.5127L28.6465 1.51172L45.5 1.5ZM24.8252 10.7207C23.1878 9.91804 21.2325 11.1053 21.2324 12.9697V27.1143C21.2324 28.9788 23.1878 30.1661 24.8252 29.3633L24.9824 29.2793L37.2275 22.2061C38.8413 21.2736 38.8911 18.9875 37.3779 17.9707L37.2266 17.876L24.9824 10.8047L24.8252 10.7207Z" stroke="white" stroke-width="3"/>
</svg>
