<svg width="62" height="60" viewBox="0 0 62 60" fill="none" xmlns="http://www.w3.org/2000/svg">
<path d="M46.2283 0.775391H15.7439C7.32209 0.775391 0.470703 7.62879 0.470703 16.0531V43.95C0.470703 52.3744 7.32209 59.2278 15.7439 59.2278H46.2283C54.6501 59.2278 61.5015 52.3744 61.5015 43.95V16.0531C61.5015 7.62879 54.6501 0.775391 46.2283 0.775391ZM5.85862 16.0531C5.85862 10.6015 10.2939 6.16484 15.7439 6.16484H46.2283C51.6783 6.16484 56.1136 10.6015 56.1136 16.0531V43.95C56.1136 49.4017 51.6783 53.8383 46.2283 53.8383H15.7439C10.2939 53.8383 5.85862 49.4017 5.85862 43.95V16.0531Z" fill="white"/>
<path d="M30.986 44.2088C38.8176 44.2088 45.1927 37.8354 45.1927 29.998C45.1927 22.1606 38.8211 15.7871 30.986 15.7871C23.1509 15.7871 16.7793 22.1606 16.7793 29.998C16.7793 37.8354 23.1509 44.2088 30.986 44.2088ZM30.986 21.18C35.8493 21.18 39.8048 25.1367 39.8048 30.0014C39.8048 34.8661 35.8493 38.8228 30.986 38.8228C26.1227 38.8228 22.1672 34.8661 22.1672 30.0014C22.1672 25.1367 26.1227 21.18 30.986 21.18Z" fill="white"/>
<path d="M46.5075 18.0836C48.6164 18.0836 50.3353 16.3677 50.3353 14.2547C50.3353 12.1418 48.6198 10.4258 46.5075 10.4258C44.3951 10.4258 42.6797 12.1418 42.6797 14.2547C42.6797 16.3677 44.3951 18.0836 46.5075 18.0836Z" fill="white"/>
</svg>
