<svg width="32" height="28" viewBox="0 0 32 28" fill="none" xmlns="http://www.w3.org/2000/svg">
<path d="M28.7745 1.503L1.67276 12.0739C1.65663 12.0802 1.641 12.0877 1.626 12.0963C1.40623 12.2218 -0.127481 13.1674 2.03514 14.0152L2.05736 14.0234L8.51074 16.1249C8.55998 16.141 8.61211 16.1461 8.6635 16.1398C8.71489 16.1335 8.76429 16.1159 8.80825 16.0883L24.5186 6.91252C26.0936 6.12502 26.0936 6.91252 25.3061 7.70002C24.5186 8.48752 14.0097 16.8501 12.7962 17.9453C12.7263 18.0086 12.683 18.0965 12.6753 18.191L12.1457 24.5537C12.1456 24.6185 12.1605 24.6824 12.1893 24.7404C12.218 24.7984 12.2597 24.8488 12.3111 24.8877C12.3841 24.9341 12.4699 24.9555 12.5559 24.9489C12.6418 24.9424 12.7235 24.9081 12.7886 24.8512L16.6229 21.3971C16.6835 21.3425 16.7608 21.3105 16.8419 21.3063C16.923 21.3022 17.0031 21.3261 17.0689 21.3741L23.7584 26.2699L23.78 26.2846C23.9419 26.3853 25.6907 27.411 26.1957 25.1204L30.8132 2.9894C30.8197 2.91929 30.8822 2.1487 30.3357 1.69329C29.7617 1.21727 28.9493 1.45764 28.8271 1.48356C28.8091 1.48862 28.7915 1.49512 28.7745 1.503Z" stroke="white"/>
</svg>
